<svg width="36" height="36" viewBox="0 0 36 36" fill="none" xmlns="http://www.w3.org/2000/svg">
<path fill-rule="evenodd" clip-rule="evenodd" d="M20.9801 4.34004C20.2201 1.21999 15.7799 1.21999 15.0199 4.34004C14.9064 4.80888 14.6839 5.2443 14.3703 5.61088C14.0568 5.97746 13.6611 6.26483 13.2155 6.44961C12.77 6.63439 12.287 6.71136 11.8061 6.67425C11.3251 6.63714 10.8597 6.48701 10.4478 6.23607C7.70368 4.56404 4.56358 7.70409 6.23563 10.4481C7.31567 12.2202 6.35764 14.5322 4.34157 15.0222C1.21948 15.7802 1.21948 20.2223 4.34157 20.9783C4.81054 21.0919 5.24605 21.3147 5.61264 21.6284C5.97922 21.9422 6.26651 22.3381 6.45112 22.784C6.63573 23.2298 6.71243 23.7129 6.67498 24.194C6.63754 24.6751 6.487 25.1405 6.23563 25.5524C4.56358 28.2964 7.70368 31.4365 10.4478 29.7644C10.8597 29.5131 11.3251 29.3625 11.8062 29.3251C12.2873 29.2876 12.7704 29.3643 13.2162 29.549C13.662 29.7336 14.058 30.0208 14.3717 30.3874C14.6855 30.754 14.9083 31.1895 15.0219 31.6585C15.7799 34.7805 20.2221 34.7805 20.9781 31.6585C21.0921 31.1897 21.3151 30.7545 21.6289 30.3882C21.9428 30.0219 22.3386 29.7348 22.7843 29.5502C23.23 29.3657 23.713 29.2889 24.1939 29.3261C24.6749 29.3633 25.1402 29.5135 25.5522 29.7644C28.2963 31.4365 31.4364 28.2964 29.7644 25.5524C29.5134 25.1404 29.3633 24.675 29.3261 24.1941C29.2888 23.7131 29.3656 23.2302 29.5502 22.7845C29.7347 22.3388 30.0218 21.943 30.3882 21.6291C30.7545 21.3153 31.1897 21.0923 31.6584 20.9783C34.7805 20.2203 34.7805 15.7782 31.6584 15.0222C31.1895 14.9086 30.7539 14.6858 30.3874 14.372C30.0208 14.0583 29.7335 13.6624 29.5489 13.2165C29.3643 12.7707 29.2876 12.2876 29.325 11.8065C29.3625 11.3254 29.513 10.86 29.7644 10.4481C31.4364 7.70409 28.2963 4.56404 25.5522 6.23607C25.1403 6.48743 24.6749 6.63797 24.1938 6.67541C23.7127 6.71286 23.2296 6.63615 22.7838 6.45155C22.338 6.26694 21.942 5.97966 21.6283 5.61308C21.3145 5.2465 21.0917 4.811 20.9781 4.34204L20.9801 4.34004Z" stroke="black" stroke-width="3"/>
<path d="M21.5556 18C21.5556 19.9637 19.9637 21.5556 18 21.5556C16.0363 21.5556 14.4444 19.9637 14.4444 18C14.4444 16.0363 16.0363 14.4444 18 14.4444C19.9637 14.4444 21.5556 16.0363 21.5556 18Z" stroke="black" stroke-width="3"/>
</svg>
