<svg width="34" height="34" viewBox="0 0 34 34" fill="none" xmlns="http://www.w3.org/2000/svg">
<path d="M11.9619 1V0.855H11.8169H8.21124H8.06624V1V8.23961H4.75063V1V0.855H4.60563H1H0.855V1V17.1119C0.855 20.2832 1.80207 23.3831 3.57624 26.0198C5.35039 28.6564 7.87195 30.7113 10.8219 31.9247C13.7719 33.1381 17.0179 33.4555 20.1496 32.837C23.2812 32.2184 26.1579 30.6916 28.4159 28.4494C30.6739 26.2072 32.2117 23.3503 32.8347 20.24C33.4578 17.1297 33.138 13.9057 31.9159 10.9759C30.6938 8.04616 28.6243 5.5422 25.9693 3.78058C23.3143 2.01897 20.193 1.07877 17 1.07877H16.855V1.22377V4.8047V4.95098L17.0013 4.94969C17.0384 4.94937 17.0755 4.94921 17.1126 4.94921C23.9409 4.94921 29.4746 10.4457 29.4746 17.2238C29.4746 24.0019 23.9409 29.4984 17.1126 29.4984C10.2843 29.4984 4.7506 24.0019 4.7506 17.2238C4.7506 17.1869 4.75077 17.15 4.75109 17.1132L4.75241 16.9651L4.75063 16.9651V12.11H8.06624V17.1119V17.2569H8.06756C8.0956 18.9612 8.61751 20.6226 9.57223 22.0414C10.554 23.5005 11.9493 24.6375 13.5816 25.3089C15.2139 25.9803 17.01 26.156 18.7428 25.8137C20.4755 25.4714 22.0673 24.6266 23.3168 23.3859C24.5663 22.1451 25.4173 20.5642 25.7621 18.843C26.1069 17.1217 25.9299 15.3376 25.2536 13.7163C24.5773 12.0949 23.4321 10.7094 21.963 9.73458C20.5341 8.78647 18.861 8.26838 17.1449 8.24076V8.23961H17.0191C17.0127 8.2396 17.0064 8.23959 17.0001 8.23959H16.8551V8.23961H11.9619V1ZM17.145 4.65925V1.36943C20.2305 1.39744 23.2418 2.31889 25.809 4.02222C28.4163 5.75222 30.4483 8.21102 31.6482 11.0876C32.8481 13.9641 33.1621 17.1294 32.5504 20.183C31.9387 23.2367 30.4288 26.0418 28.2115 28.2436C25.9942 30.4454 23.1691 31.9449 20.0934 32.5525C17.0176 33.16 13.8295 32.8482 10.9323 31.6565C8.03503 30.4648 5.55888 28.4468 3.81684 25.8579C2.0748 23.269 1.145 20.2254 1.145 17.1119V1.145H4.46063V8.38461V8.52961H4.60563H8.21124H8.35624V8.38461V1.145H11.6719V8.38461V8.52961H11.8169H16.8549V11.82H11.8169H11.6719V11.965V17.1119V17.2444L11.6737 17.2445C11.7445 20.1067 14.1031 22.4037 17.0001 22.4037C19.9418 22.4037 22.3282 20.0354 22.3282 17.1119C22.3282 14.2365 20.0198 11.8983 17.1451 11.8219V8.5308C18.8042 8.55843 20.4214 9.05974 21.8027 9.97622C23.2241 10.9194 24.3319 12.2598 24.986 13.8279C25.6401 15.396 25.8112 17.1214 25.4777 18.786C25.1443 20.4506 24.3212 21.9798 23.1125 23.1801C21.9037 24.3804 20.3635 25.198 18.6866 25.5292C17.0097 25.8604 15.2715 25.6904 13.6919 25.0407C12.1124 24.391 10.7625 23.2909 9.81283 21.8795C8.86318 20.4682 8.35637 18.8091 8.35636 17.1119L8.35636 16.9669H8.35624V11.965V11.82H8.21124H4.60563H4.46063V11.965V17.1119L17.145 4.65925Z" fill="#E60D4C" stroke="#E60D4C" stroke-width="0.29"/>
</svg>
